<svg width="240" height="240" viewBox="0 0 240 240" fill="none" xmlns="http://www.w3.org/2000/svg">
<path fill-rule="evenodd" clip-rule="evenodd" d="M83.2 0H156.8C224 0 240 16 240 83.2V156.8C240 224 224 240 156.8 240H83.2C16 240 0 224 0 156.8V83.2C0 16 16 0 83.2 0Z" fill="#5181B8"/>
<path fill-rule="evenodd" clip-rule="evenodd" d="M196.543 82.6828C197.655 78.9747 196.543 76.25 191.251 76.25H173.751C169.301 76.25 167.25 78.6037 166.137 81.1992C166.137 81.1992 157.238 102.891 144.63 116.981C140.552 121.06 138.698 122.358 136.473 122.358C135.36 122.358 133.75 121.06 133.75 117.352V82.6828C133.75 78.2331 132.459 76.25 128.751 76.25H101.251C98.4699 76.25 96.7976 78.3152 96.7976 80.2725C96.7976 84.4907 103.101 85.4634 103.751 97.3292V123.1C103.751 128.75 102.73 129.774 100.505 129.774C94.5727 129.774 80.1417 107.986 71.5828 83.0534C69.9054 78.2075 68.2231 76.25 63.7505 76.25H46.2505C41.2505 76.25 40.2505 78.6037 40.2505 81.1992C40.2505 85.8344 46.1834 108.824 67.875 139.23C82.336 159.994 102.711 171.25 121.251 171.25C132.374 171.25 133.751 168.75 133.751 164.444V148.75C133.751 143.75 134.804 142.752 138.327 142.752C140.922 142.752 145.372 144.05 155.755 154.061C167.62 165.927 169.576 171.25 176.251 171.25H193.751C198.751 171.25 201.251 168.75 199.808 163.816C198.23 158.899 192.565 151.765 185.048 143.308C180.969 138.488 174.851 133.297 172.997 130.701C170.401 127.364 171.143 125.881 172.997 122.914C172.997 122.914 194.318 92.8796 196.543 82.6828V82.6828Z" fill="white"/>
</svg>
